<svg xmlns="http://www.w3.org/2000/svg" version="1.1" xmlns:xlink="http://www.w3.org/1999/xlink" width="1000" height="1000"><metadata><rdf:RDF xmlns:rdf="http://www.w3.org/1999/02/22-rdf-syntax-ns#" xmlns:dc="http://purl.org/dc/elements/1.1/"><rdf:Description><dc:creator>RealFaviconGenerator</dc:creator><dc:source>https://realfavicongenerator.net</dc:source></rdf:Description></rdf:RDF></metadata><style>
    #light-icon {
      display: inline;
    }
    #dark-icon {
      display: none;
    }

    @media (prefers-color-scheme: dark) {
      #light-icon {
        display: none;
      }
      #dark-icon {
        display: inline;
      }
    }
  </style><g id="light-icon"><svg xmlns="http://www.w3.org/2000/svg" version="1.1" xmlns:xlink="http://www.w3.org/1999/xlink" width="1000" height="1000"><g><g transform="matrix(1,0,0,1,0,0)"><svg xmlns="http://www.w3.org/2000/svg" version="1.1" xmlns:xlink="http://www.w3.org/1999/xlink" width="1000px" height="1000px" xml:space="preserve" xmlns:serif="http://www.serif.com/" style="fill-rule:evenodd;clip-rule:evenodd;stroke-linejoin:round;stroke-miterlimit:2;"><g transform="matrix(2.292006,0,0,2.292006,-159.554266,-916.802276)">
        <g>
            <g transform="matrix(0.916742,0,0,0.793922,-41.766033,98.186619)">
                <path d="M228.104,626.574C228.104,629.609 225.973,632.069 223.345,632.069C204.014,632.069 132.403,632.069 132.403,632.069C128.506,632.069 124.905,629.668 122.956,625.771C121.008,621.874 121.008,617.073 122.956,613.176L230.02,399.049C231.968,395.152 235.569,392.751 239.466,392.751C243.364,392.751 246.965,395.152 248.913,399.049L355.977,613.176C357.925,617.073 357.925,621.874 355.977,625.771C354.028,629.668 350.427,632.069 346.53,632.069C346.53,632.069 274.919,632.069 255.588,632.069C252.96,632.069 250.829,629.609 250.829,626.574C250.829,608.537 250.829,552.296 250.829,552.296C250.829,545.055 245.738,539.176 239.466,539.176C233.195,539.176 228.104,545.055 228.104,552.296L228.104,626.574Z"></path>
            </g>
            <g transform="matrix(0.787258,0,0,0.787258,-35.919789,112.422831)">
                <path d="M520.805,365.29C590.911,365.29 647.828,422.207 647.828,492.313C647.828,562.419 590.911,619.336 520.805,619.336C450.699,619.336 393.781,562.419 393.781,492.313C393.781,422.207 450.699,365.29 520.805,365.29ZM520.805,479.611C513.794,479.611 508.102,485.302 508.102,492.313C508.102,499.324 513.794,505.015 520.805,505.015C527.815,505.015 533.507,499.324 533.507,492.313C533.507,485.302 527.815,479.611 520.805,479.611Z"></path>
            </g>
        </g>
        <g>
            <g transform="matrix(0.916742,0,0,0.793922,178.233967,319.402084)">
                <path d="M228.104,626.574C228.104,629.609 225.973,632.069 223.345,632.069C204.014,632.069 132.403,632.069 132.403,632.069C128.506,632.069 124.905,629.668 122.956,625.771C121.008,621.874 121.008,617.073 122.956,613.176L230.02,399.049C231.968,395.152 235.569,392.751 239.466,392.751C243.364,392.751 246.965,395.152 248.913,399.049L355.977,613.176C357.925,617.073 357.925,621.874 355.977,625.771C354.028,629.668 350.427,632.069 346.53,632.069C346.53,632.069 274.919,632.069 255.588,632.069C252.96,632.069 250.829,629.609 250.829,626.574C250.829,608.537 250.829,552.296 250.829,552.296C250.829,545.055 245.738,539.176 239.466,539.176C233.195,539.176 228.104,545.055 228.104,552.296L228.104,626.574Z"></path>
            </g>
            <g transform="matrix(1,0,0,1,-425.122553,221.215465)">
                <path d="M687.214,423.003C688.444,421.711 690.337,421.298 691.993,421.961C693.65,422.623 694.736,424.228 694.736,426.012C694.736,464.261 694.736,590 694.736,590C694.736,592.652 693.682,595.196 691.807,597.071C689.932,598.946 687.388,600 684.736,600L504.736,600C502.084,600 499.54,598.946 497.665,597.071C495.789,595.196 494.736,592.652 494.736,590L494.736,410C494.736,407.348 495.789,404.804 497.665,402.929C499.54,401.054 502.084,400 504.736,400L670.171,400C671.916,400 673.493,401.04 674.181,402.644C674.868,404.249 674.534,406.108 673.33,407.372C651.647,430.14 587.193,497.816 587.193,497.816C583.228,501.979 583.389,508.578 587.552,512.543C591.715,516.508 598.314,516.347 602.279,512.184C602.279,512.184 665.171,446.147 687.214,423.003Z"></path>
            </g>
        </g>
    </g></svg></g></g></svg></g><g id="dark-icon"><svg xmlns="http://www.w3.org/2000/svg" version="1.1" xmlns:xlink="http://www.w3.org/1999/xlink" width="1000" height="1000"><g><g transform="matrix(1,0,0,1,0,0)"><svg xmlns="http://www.w3.org/2000/svg" version="1.1" xmlns:xlink="http://www.w3.org/1999/xlink" width="1000px" height="1000px" xml:space="preserve" xmlns:serif="http://www.serif.com/" style="fill-rule:evenodd;clip-rule:evenodd;stroke-linejoin:round;stroke-miterlimit:2;"><g transform="matrix(2.292006,0,0,2.292006,-159.554266,-916.802276)">
        <g>
            <g transform="matrix(0.916742,0,0,0.793922,-41.766033,98.186619)">
                <path d="M228.104,626.574C228.104,629.609 225.973,632.069 223.345,632.069C204.014,632.069 132.403,632.069 132.403,632.069C128.506,632.069 124.905,629.668 122.956,625.771C121.008,621.874 121.008,617.073 122.956,613.176L230.02,399.049C231.968,395.152 235.569,392.751 239.466,392.751C243.364,392.751 246.965,395.152 248.913,399.049L355.977,613.176C357.925,617.073 357.925,621.874 355.977,625.771C354.028,629.668 350.427,632.069 346.53,632.069C346.53,632.069 274.919,632.069 255.588,632.069C252.96,632.069 250.829,629.609 250.829,626.574C250.829,608.537 250.829,552.296 250.829,552.296C250.829,545.055 245.738,539.176 239.466,539.176C233.195,539.176 228.104,545.055 228.104,552.296L228.104,626.574Z" style="fill:rgb(255,253,245);"></path>
            </g>
            <g transform="matrix(0.787258,0,0,0.787258,-35.919789,112.422831)">
                <path d="M520.805,365.29C590.911,365.29 647.828,422.207 647.828,492.313C647.828,562.419 590.911,619.336 520.805,619.336C450.699,619.336 393.781,562.419 393.781,492.313C393.781,422.207 450.699,365.29 520.805,365.29ZM520.805,479.611C513.794,479.611 508.102,485.302 508.102,492.313C508.102,499.324 513.794,505.015 520.805,505.015C527.815,505.015 533.507,499.324 533.507,492.313C533.507,485.302 527.815,479.611 520.805,479.611Z" style="fill:rgb(255,253,245);"></path>
            </g>
        </g>
        <g>
            <g transform="matrix(0.916742,0,0,0.793922,178.233967,319.402084)">
                <path d="M228.104,626.574C228.104,629.609 225.973,632.069 223.345,632.069C204.014,632.069 132.403,632.069 132.403,632.069C128.506,632.069 124.905,629.668 122.956,625.771C121.008,621.874 121.008,617.073 122.956,613.176L230.02,399.049C231.968,395.152 235.569,392.751 239.466,392.751C243.364,392.751 246.965,395.152 248.913,399.049L355.977,613.176C357.925,617.073 357.925,621.874 355.977,625.771C354.028,629.668 350.427,632.069 346.53,632.069C346.53,632.069 274.919,632.069 255.588,632.069C252.96,632.069 250.829,629.609 250.829,626.574C250.829,608.537 250.829,552.296 250.829,552.296C250.829,545.055 245.738,539.176 239.466,539.176C233.195,539.176 228.104,545.055 228.104,552.296L228.104,626.574Z" style="fill:rgb(255,253,245);"></path>
            </g>
            <g transform="matrix(1,0,0,1,-425.122553,221.215465)">
                <path d="M687.214,423.003C688.444,421.711 690.337,421.298 691.993,421.961C693.65,422.623 694.736,424.228 694.736,426.012C694.736,464.261 694.736,590 694.736,590C694.736,592.652 693.682,595.196 691.807,597.071C689.932,598.946 687.388,600 684.736,600L504.736,600C502.084,600 499.54,598.946 497.665,597.071C495.789,595.196 494.736,592.652 494.736,590L494.736,410C494.736,407.348 495.789,404.804 497.665,402.929C499.54,401.054 502.084,400 504.736,400L670.171,400C671.916,400 673.493,401.04 674.181,402.644C674.868,404.249 674.534,406.108 673.33,407.372C651.647,430.14 587.193,497.816 587.193,497.816C583.228,501.979 583.389,508.578 587.552,512.543C591.715,516.508 598.314,516.347 602.279,512.184C602.279,512.184 665.171,446.147 687.214,423.003Z" style="fill:rgb(255,253,245);"></path>
            </g>
        </g>
    </g></svg></g></g></svg></g></svg>